<svg xmlns="http://www.w3.org/2000/svg" width="547" height="583" fill="none"><path fill="#111E4C" stroke="#111E4C" stroke-linecap="round" stroke-linejoin="round" d="M48.717 304.677v-27.47c0-2.45.58-6.36 1.3-8.7l16.32-53.49c.78-2.55 3.57-4.3 6.2-3.89 14.6 2.25 10.27 27.04 8.49 35.21l-6.46 29.62s2.75 4.47 2.9 10.32l1.33 49.76 8.29-29.01a17.27 17.27 0 0 1 4.91-7.97l26.27-24.2c4.52-4.17 9.17-2.63 10.34 3.4 1.5 7.77-1.66 18.9-7.01 24.72l-15.79 17.18.74 3.59c.7 3.41.71 6.93.02 10.34l-3.84 19.07 6.5 2.11c2.28.74 4.78.24 6.59-1.33l47.63-41.05 6.82 10.47-8.34 19.89-9.92 47.52-48.18 16.94-55.11-103.06v.03Z"/><path fill="#2040C4" stroke="#111E4C" stroke-linecap="round" stroke-linejoin="round" d="M287.377 222.847c6.61-6.81 7.93-18.97 2.92-27.04l-61.79-99.57c-5-8.06-14.5-9.09-21.12-2.28l-125.73 129.47c-2.26 2.33-4.04 4.98-5.11 7.8-1.62 4.26-1.3 8.15.52 11.09l79.98 128.89c-1.82-2.94-2.14-6.83-.52-11.09 1.07-2.82 2.86-5.48 5.11-7.8l125.73-129.47h.01Z"/><path fill="#335CFF" stroke="#111E4C" stroke-linecap="round" stroke-linejoin="round" d="M397.867 260.687c4.31 6.95 7.37 5.96 6.78-2.2l-6.53-91.38c-.58-8.16-4.59-20.53-8.91-27.48l-57.76-93.09c-4.31-6.95-7.37-5.96-6.78 2.2l6.53 91.38c.58 8.16 4.59 20.53 8.91 27.48l57.76 93.09Z"/><path fill="#111E4C" d="m132.187 198.307 5.33 8.59-7.92 8.16-5.33-8.59 7.92-8.16Z"/><path fill="#111E4C" d="m140.107 190.147 5.33 8.59-7.92 8.16-5.33-8.59 7.92-8.16Z"/><path fill="#111E4C" d="m145.437 198.737 5.34 8.59-7.93 8.16-5.33-8.59 7.92-8.16Z"/><path fill="#111E4C" d="m134.777 181.557 65.17-67.11c5.7-5.87 13.89-4.98 18.21 1.97l57.76 93.09c4.31 6.95 3.18 17.44-2.52 23.31l-96.86 99.75-57.46-92.6 31.7-32.64-15.99-25.77h-.01Z"/><path fill="#335CFF" d="m129.597 215.057 5.33 8.59-7.93 8.16-5.33-8.59 7.93-8.16Z"/><path fill="#111E4C" d="m111.007 206.037 5.33 8.59-7.92 8.16-5.33-8.59 7.92-8.16Z"/><path fill="#D7DCE0" stroke="#111E4C" stroke-linecap="round" stroke-linejoin="round" d="M245.107 335.067c4.31 6.95 9.46 6.14 11.43-1.8l25.21-101.54c1.97-7.94.05-20.13-4.26-27.08l-57.76-93.09c-4.31-6.95-9.46-6.14-11.43 1.8l-25.21 101.54c-1.97 7.94-.05 20.13 4.26 27.08l57.76 93.09Z"/><path fill="#fff" stroke="#111E4C" stroke-linecap="round" stroke-linejoin="round" d="M544.027 103.457c4.31 6.95 1.32 14.15-6.65 15.99l-122.77 28.37c-7.97 1.84-18.03-2.34-22.34-9.29l-57.76-93.09c-4.31-6.95-1.32-14.15 6.65-15.99l122.77-28.37c7.97-1.84 18.03 2.34 22.34 9.29l57.76 93.09Z"/><path fill="#111E4C" d="M363.677 205.597c1.49-2.24 2.83-5.46 3.94-9.67 4.51-17.13 3.4-44.01-2.48-60.04-2.85-7.78-6.3-11.58-9.61-11.46l-7.92.27c-3.51.12-6.87 4.64-9.19 13.45-1.55 5.9-2.44 12.96-2.69 20.34 1.32 3.44 2.83 6.63 4.37 9.12l23.58 38v-.01Z"/><path fill="#335CFF" d="M344.037 173.947c-1.05-12.61-.34-26.01 2.3-36.07 2.32-8.82 5.67-13.33 9.19-13.45l-7.92.27c-3.51.12-6.87 4.64-9.19 13.45-1.55 5.9-2.44 12.96-2.69 20.34 1.32 3.44 2.83 6.63 4.37 9.12l3.94 6.34Z"/><path fill="#fff" stroke="#fff" stroke-linecap="round" stroke-linejoin="round" d="m345.167 143.237-7.92.27c-.14.77-.27 1.56-.39 2.35l3.47-.12c3.04-.1 4.18 1.68 3.97 3.37.22-2.46.72-5.1.86-5.87h.01Z"/><path fill="#fff" d="m338.427 138.127 3.72-.13c3.2-.11 4.58-1.83 5.45-4.25 2.2-6.1 5-9.23 7.92-9.33l-7.92.27c-3.51.12-6.86 4.63-9.18 13.43l.01.01Z"/><path stroke="#111E4C" stroke-linecap="round" stroke-linejoin="round" d="M363.677 205.597c1.49-2.24 2.83-5.46 3.94-9.67 4.51-17.13 3.4-44.01-2.48-60.04-2.85-7.78-6.3-11.58-9.61-11.46l-7.92.27c-3.51.12-6.87 4.64-9.19 13.45-1.55 5.9-2.44 12.96-2.69 20.34 1.32 3.44 2.83 6.63 4.37 9.12l23.58 38v-.01Z"/><path fill="#335CFF" d="m373.897 117.517-7.46 2.67c-3.31 1.18-5.13 6.51-4.65 15.61.93 17.69 10.18 42.95 20.66 56.43 5.09 6.54 9.53 9.11 12.65 7.99 0 0 4.34-1.55 7.46-2.67 3.3-1.19 5.12-6.51 4.64-15.61-.93-17.69-10.17-42.95-20.66-56.43-5.09-6.54-9.53-9.11-12.65-7.99h.01Z"/><path fill="#111E4C" d="m373.897 117.517-7.46 2.67c-.77.28-1.46.79-2.06 1.52.59 5.23 1.89 11.31 3.29 15.67 5.42 16.87 20.81 38.93 34.39 49.28 1.74 1.33 3.37 2.39 4.87 3.22.33-2.2.44-4.84.28-7.93-.93-17.69-10.18-42.95-20.66-56.43-5.09-6.54-9.53-9.11-12.65-7.99v-.01Zm17.81 74.21a4.208 4.208 0 0 0-4.57-1.18l-4.68 1.68c5.09 6.54 9.53 9.11 12.65 7.99l7.46-2.67c-2.75.98-6.52-.89-10.86-5.82Z"/><path fill="#335CFF" d="m373.897 117.517-7.46 2.67c-3.31 1.18-5.13 6.51-4.65 15.61.93 17.69 10.18 42.95 20.66 56.43l7.46-2.67c-10.48-13.48-19.73-38.74-20.66-56.43-.48-9.1 1.34-14.43 4.65-15.61Z"/><path stroke="#fff" stroke-linecap="round" stroke-linejoin="round" d="M385.417 182.947c-7.52-12.46-13.75-30.01-15.65-44.34"/><path fill="#fff" stroke="#fff" stroke-linecap="round" stroke-linejoin="round" d="m362.657 143.617 3.27-1.17c2.86-1.02 4.5.33 4.81 2-.54-2.41-.87-5.08-.97-5.86l-7.46 2.67c.1.78.22 1.57.35 2.36Z"/><path fill="#fff" d="m361.797 135.777 3.51-1.26c3.01-1.08 3.81-3.14 3.9-5.71.23-6.48 1.95-10.32 4.7-11.3l-7.46 2.67c-3.31 1.18-5.12 6.5-4.65 15.59v.01Z"/><path stroke="#111E4C" stroke-linecap="round" stroke-linejoin="round" d="m373.897 117.517-7.46 2.67c-3.31 1.18-5.13 6.51-4.65 15.61.93 17.69 10.18 42.95 20.66 56.43 5.09 6.54 9.53 9.11 12.65 7.99 0 0 4.34-1.55 7.46-2.67 3.3-1.19 5.12-6.51 4.64-15.61-.93-17.69-10.17-42.95-20.66-56.43-5.09-6.54-9.53-9.11-12.65-7.99h.01Z"/><path fill="#335CFF" d="m422.937 24.537 2.01 6.4c-2.22-7.04.93-15.42 8.56-22.83l-8.52 1.97c-2.7 4.96-3.46 9.98-2.06 14.46h.01Z"/><path fill="#335CFF" d="m463.927 1.077-30.41 7.03c-10.58 10.27-12.54 22.43-3.53 30.26 11.57 10.05 36.85 9.16 56.47-1.99 4.29-2.44 7.96-5.17 10.95-8.05l-11.14-17.95c-4.31-6.95-14.37-11.13-22.34-9.29v-.01Z"/><path fill="#fff" d="M432.317 9.317c.39-.41.79-.81 1.2-1.21l-1.48.34.28.87Zm.24-8.61c-.82.75-1.59 1.51-2.32 2.27l1.79 5.47 1.48-.34c.36-.35.74-.71 1.12-1.06l-2.08-6.35.01.01Z"/><path fill="#fff" d="m422.937 24.537 2.01 6.4c-1.55-4.93-.47-10.51 2.93-15.96 1.46-2.34 3.36-4.65 5.65-6.87l-8.53 1.97c-2.7 4.96-3.47 9.98-2.06 14.46Z"/><path stroke="#111E4C" stroke-linecap="round" stroke-linejoin="round" d="m463.927 1.077-38.97 9.01c-2.68 4.95-3.43 9.95-2.03 14.41l2.03 6.44c.86 2.71 2.52 5.22 5.02 7.39 11.57 10.05 36.85 9.16 56.47-1.99 4.29-2.44 7.95-5.17 10.94-8.05l-11.12-17.92c-4.31-6.95-14.37-11.13-22.34-9.29Z"/><path fill="#335CFF" d="M498.047 41.107c-15.52-9.1-42.18-12.74-59.56-8.11-8.68 2.31-13.41 6.24-14.02 10.74l-1.02 7.5c.61-4.5 5.34-8.43 14.02-10.74 17.38-4.62 44.04-.99 59.56 8.11 7.76 4.55 11.26 9.61 10.65 14.11l1.02-7.5c.61-4.5-2.89-9.56-10.65-14.11Z"/><path fill="#335CFF" d="M497.027 48.607c-6.82-4-15.78-6.94-25.17-8.59-11.98-2.11-24.65-2.11-34.39.48-17.37 4.62-18.89 15.74-3.37 24.85 15.52 9.1 42.18 12.74 59.55 8.12 8.99-2.39 13.74-6.52 14.07-11.22.31-4.38-3.21-9.24-10.7-13.64h.01Z"/><path fill="#111E4C" d="M437.467 40.487c-17.37 4.62-18.89 15.74-3.37 24.85 8.42 4.94 20.11 8.26 31.83 9.54l-12.85-36.37c-5.61.11-10.94.75-15.6 1.99l-.01-.01Z"/><path fill="#fff" d="m424.467 43.727-1.02 7.5c.61-4.5 5.34-8.43 14.02-10.74 4.78-1.27 10.26-1.92 16.02-2a4.912 4.912 0 0 0 4.8-4.24l.44-3.22c-7.28-.24-14.3.38-20.23 1.96-8.68 2.31-13.41 6.24-14.02 10.74h-.01Z"/><path fill="#111E4C" d="M498.047 41.107c-3.92-2.3-8.56-4.25-13.57-5.81l-1.02 7.5c5.02 1.56 9.65 3.51 13.57 5.81 7.76 4.55 11.26 9.61 10.65 14.11l1.02-7.5c.61-4.5-2.89-9.56-10.65-14.11Z"/><path stroke="#fff" stroke-linecap="round" stroke-linejoin="round" d="M471.857 40.007c9.39 1.65 18.35 4.59 25.17 8.59 7.49 4.39 11.01 9.26 10.7 13.64"/><path fill="#fff" d="M460.927 36.027c-.09.68.1 1.37.53 1.91.43.54 1.06.88 1.74.94h.03c1.72.15 3.25-1.07 3.48-2.78l.6-4.4c-1.91-.23-3.82-.4-5.72-.52l-.66 4.85Zm8.45.64a2.98 2.98 0 0 0 2.44 3.34l1.02-7.5c-.94-.17-1.88-.31-2.83-.45l-.63 4.61Z"/><path stroke="#111E4C" stroke-linecap="round" stroke-linejoin="round" d="M498.047 41.107c-15.52-9.1-42.18-12.74-59.56-8.11-8.68 2.31-13.41 6.24-14.02 10.74l-1.02 7.5c-.61 4.5 2.89 9.56 10.65 14.11 15.52 9.1 42.18 12.74 59.55 8.12 8.99-2.39 13.74-6.52 14.07-11.22l.97-7.02c.61-4.5-2.89-9.56-10.65-14.11l.01-.01Z"/><path fill="#111E4C" stroke="#111E4C" stroke-linecap="round" stroke-linejoin="round" d="M489.457 87.667c-13.18-10.09-37.46-21.67-54.24-25.87-8.63-2.16-13.6-1.95-14.58.15l-3.47 7.37c-.93 1.97 1.68 5.62 8.07 10.52 13.18 10.09 37.46 21.67 54.24 25.87 8.63 2.16 13.59 1.95 14.58-.14.94-1.97 3.48-7.37 3.48-7.37.93-1.97-1.67-5.62-8.07-10.52l-.01-.01Z"/><path fill="#111E4C" d="m489.457 87.667-3.47 7.37c6.4 4.9 9 8.54 8.07 10.52l3.47-7.37c.93-1.97-1.67-5.62-8.07-10.52Z"/><path stroke="#fff" stroke-linecap="round" stroke-linejoin="round" d="M492.537 101.097c-1.36-1.71-3.53-3.74-6.55-6.06"/><path fill="#335CFF" d="m420.637 61.947-3.47 7.37c.99-2.09 5.95-2.31 14.58-.15 16.78 4.2 41.05 15.78 54.24 25.87l3.47-7.37c-13.18-10.09-37.46-21.67-54.24-25.87-8.63-2.16-13.6-1.95-14.58.15Z"/><path stroke="#fff" stroke-linecap="round" stroke-linejoin="round" d="M485.987 95.037c-11.87-9.09-32.74-19.39-49.03-24.41"/><path fill="#fff" d="M442.657 63.977c-.76-.25-1.51-.49-2.25-.72l-3.47 7.37c.74.23 5.7 1.94 8.03 2.76-2.52-.96-5.07-3.55-3.19-7.52l.89-1.88-.01-.01Zm-22.02-2.03-3.47 7.37c.82-1.74 4.38-2.18 10.5-1.05 2.43.45 4.86-.79 5.91-3.02l1.63-3.45c-8.62-2.16-13.58-1.94-14.57.15Z"/><path stroke="#111E4C" stroke-linecap="round" stroke-linejoin="round" d="M489.457 87.667c-13.18-10.09-37.46-21.67-54.24-25.87-8.63-2.16-13.6-1.95-14.58.15l-3.47 7.37c-.93 1.97 1.68 5.62 8.07 10.52 13.18 10.09 37.46 21.67 54.24 25.87 8.63 2.16 13.59 1.95 14.58-.14.94-1.97 3.48-7.37 3.48-7.37.93-1.97-1.67-5.62-8.07-10.52l-.01-.01Z"/><path fill="#335CFF" stroke="#111E4C" stroke-linecap="round" stroke-linejoin="round" d="M401.047 110.717c-6.4-4.89-10.6-6.45-12.27-5.03l-6.2 5.28c-1.76 1.5-.67 6.35 3.68 14.11 8.45 15.09 25.99 35.48 39.18 45.56 6.4 4.89 10.6 6.45 12.26 5.03 0 0 4.55-3.86 6.21-5.29 1.76-1.51.66-6.35-3.68-14.11-8.45-15.09-25.99-35.48-39.18-45.56v.01Z"/><path fill="#111E4C" d="M425.447 170.637c6.4 4.89 10.6 6.45 12.26 5.03l6.2-5.28c-1.66 1.42-5.86-.14-12.27-5.03l-6.2 5.28h.01Z"/><path stroke="#fff" stroke-linecap="round" stroke-linejoin="round" d="M439.207 170.097c-2.01-.86-4.54-2.43-7.56-4.74"/><path fill="#335CFF" d="M382.587 110.967c-1.76 1.5-.67 6.35 3.68 14.11 8.45 15.09 25.99 35.48 39.18 45.56l6.2-5.28c-13.19-10.08-30.73-30.47-39.18-45.56-4.35-7.77-5.44-12.61-3.68-14.11l-6.2 5.28Z"/><path stroke="#fff" stroke-linecap="round" stroke-linejoin="round" d="M431.647 165.357c-11.88-9.07-27.29-26.52-36.41-40.92"/><path fill="#fff" d="m390.307 131.687 1.58-1.35c3.34-2.85 6.51-1.07 8.1 1.11-1.39-2.03-4.35-6.37-4.76-7.03l-6.2 5.28c.41.65.84 1.32 1.28 1.98v.01Zm-7.72-20.72c-1.76 1.5-.67 6.34 3.67 14.1l2.9-2.47a5.442 5.442 0 0 0 1.37-6.5c-2.7-5.61-3.21-9.16-1.74-10.41l-6.2 5.28Z"/><path stroke="#111E4C" stroke-linecap="round" stroke-linejoin="round" d="M401.047 110.717c-6.4-4.89-10.6-6.45-12.27-5.03l-6.2 5.28c-1.76 1.5-.67 6.35 3.68 14.11 8.45 15.09 25.99 35.48 39.18 45.56 6.4 4.89 10.6 6.45 12.26 5.03 0 0 4.55-3.86 6.21-5.29 1.76-1.51.66-6.35-3.68-14.11-8.45-15.09-25.99-35.48-39.18-45.56v.01Z"/><path fill="#111E4C" stroke="#111E4C" stroke-linecap="round" stroke-linejoin="round" d="M464.617 130.097c-11.81-11.18-32.54-28.32-46.31-38.29-7.08-5.13-10.94-7.36-11.41-6.8l-5.49 6.66c-.44.53 2.14 3.56 7.87 8.98 11.81 11.18 32.54 28.32 46.31 38.29 7.08 5.13 10.94 7.36 11.41 6.8.45-.53 5.49-6.66 5.49-6.66.44-.53-2.14-3.56-7.87-8.98Z"/><path stroke="#fff" stroke-linecap="round" stroke-linejoin="round" d="M465.157 142.827c-1.31-1.48-3.32-3.51-6.03-6.07"/><path fill="#335CFF" d="M418.317 91.807c-7.08-5.13-10.94-7.36-11.41-6.8l-5.49 6.66c.47-.57 4.33 1.67 11.41 6.8 14.5 10.5 33.8 26.45 46.31 38.29l3.42 3.32-.31-7.08 2.39-2.89c-11.81-11.18-32.54-28.32-46.31-38.29l-.01-.01Z"/><path fill="#111E4C" d="m464.617 130.097-3.02 3.67a4.198 4.198 0 0 0 .29 5.65c3.8 3.76 5.48 5.88 5.12 6.32l5.49-6.66c.44-.53-2.14-3.56-7.87-8.98h-.01Z"/><path stroke="#fff" stroke-linecap="round" stroke-linejoin="round" d="M459.137 136.757c-9.94-9.41-26.21-23.05-39.32-33.07"/><path fill="#fff" stroke="#fff" stroke-linecap="round" stroke-linejoin="round" d="M424.457 96.387c-.63-.48-1.25-.95-1.87-1.41l-3.32 4.03c-.57.69-.83 1.58-.73 2.46.1.89.56 1.69 1.27 2.23l1.82 1.39s-2.04-2.8-.08-5.17l2.91-3.53Z"/><path fill="#fff" d="M401.417 91.667c.41-.5 3.42 1.16 8.93 5.02 1.4.98 3.32.73 4.41-.59l3.55-4.3c-7.08-5.12-10.93-7.35-11.4-6.79l-5.49 6.66Z"/><path stroke="#111E4C" stroke-linecap="round" stroke-linejoin="round" d="M464.617 130.097c-11.81-11.18-32.54-28.32-46.31-38.29-7.08-5.13-10.94-7.36-11.41-6.8l-5.49 6.66c-.44.53 2.14 3.56 7.87 8.98 11.81 11.18 32.54 28.32 46.31 38.29 7.08 5.13 10.94 7.36 11.41 6.8.45-.53 5.49-6.66 5.49-6.66.44-.53-2.14-3.56-7.87-8.98Z"/><path fill="#fff" stroke="#111E4C" stroke-linecap="round" stroke-linejoin="round" d="M248.417 335.067c4.31 6.95 13.87 9.72 21.23 6.15l120.74-58.53c7.36-3.57 9.86-12.18 5.54-19.13l-57.76-93.09c-4.31-6.95-13.87-9.72-21.23-6.15l-120.74 58.53c-7.36 3.57-9.86 12.18-5.54 19.13l57.76 93.09Z"/><path fill="#111E4C" d="m212.067 246.467-2.61-4.3-5.73 2.81-1.56-2.58 5.73-2.81-2.61-4.3 3.44-1.68 2.61 4.3 5.73-2.81 1.56 2.58-5.73 2.81 2.61 4.3-3.44 1.68Zm14.11-3.26-1.34-2.2 4.32-9.55c.6-1.39 1-2.52 1.2-3.38.2-.87.09-1.65-.33-2.35-.48-.79-1.22-1.25-2.2-1.36-.99-.11-2.01.1-3.08.62-1.12.55-1.86 1.24-2.22 2.06-.36.83-.29 1.67.24 2.53l-3.87 1.89c-.65-1.07-.89-2.16-.71-3.27.18-1.11.7-2.16 1.58-3.15.88-.99 2.06-1.85 3.55-2.58 1.49-.73 2.95-1.17 4.35-1.31 1.39-.13 2.63.01 3.71.43s1.91 1.11 2.48 2.05c.38.63.6 1.33.64 2.09.05.77-.11 1.72-.46 2.86-.36 1.14-.95 2.59-1.76 4.35l-2.08 4.85.07.12 9.78-4.79 1.55 2.55-15.39 7.53-.03.01Zm20.23-9.67c-.66.33-1.34.43-2.03.31-.69-.12-1.18-.43-1.48-.94-.31-.49-.331-1.03-.071-1.61.26-.58.731-1.04 1.391-1.36.66-.32 1.32-.42 2.01-.3.69.12 1.18.42 1.49.91.29.5.31 1.05.05 1.63-.26.59-.72 1.04-1.37 1.36h.01Zm5.64-3 .95-18.85-.07-.12-11.08 5.42-1.55-2.55 15.29-7.49 1.58 2.61-.91 18.9-4.22 2.07.01.01Z"/><path fill="#335CFF" d="m355.727 291.637 23.83-11.55c13.35-6.47 4.36-20.96-8.99-14.49l-23.83 11.55c-13.34 6.46-4.5 21.03 8.99 14.49Z"/><path stroke="#111E4C" stroke-linecap="round" stroke-linejoin="round" d="M227.647 301.597c6.7-3.09 20.51-8.27 27.21-11.37 8.06-3.72 5.89-9.3 17.22-12.46 12.19-3.4 1.33-22.68 6.46-27.73 5.35-5.27 11.25 5.31 21.55 1.72 10.81-3.77 22.97 18.7 31.29 14.86 8.81-4.07-8.17-29.97-2.84-40.15 5.59-10.7-12.93-39.14-4.6-42.99 4.13-1.91 11.48 4.63 18.79 11.75 7.75 7.55 14.14 5.38 14.14 5.38"/><path fill="#335CFF" d="m126.857 189.717 5.33 8.59-7.92 8.16-5.34-8.59 7.93-8.16Zm206.99 192.2c9.49 0 13.16-6.6 8.16-14.66l-61.79-99.57c-5-8.06-16.86-14.66-26.35-14.66H86.707c-7.14 0-12.51-2.79-15.26-7.22l79.98 128.89c2.75 4.43 8.12 7.22 15.26 7.22h167.16Z"/><path fill="#2040C4" d="M190.317 381.917h143.53c9.49 0 13.16-6.6 8.16-14.66l-61.79-99.57c-3.04-4.9-8.62-9.25-14.66-11.92l-75.24 126.15Z"/><path fill="#2040C4" d="M238.197 308.637c-.6 0-1.32-.06-3.68-.3l-6.19-21.8c.84-.84 1.92-1.44 3.48-1.68 1.52-.3 2.59-.36 3.62-.36 3.24 0 6.12.66 8.22 2.1 2.09 1.44 3.91 3.42 5.48 5.95 1.27 2.04 1.98 4.02 2.24 5.94.21 1.86-.07 3.6-.84 5.11-.75 1.47-2.05 2.69-3.82 3.6-1.71.96-3.92 1.38-6.56 1.38-.85 0-1.54 0-1.92.06m-19.33-55.61h-16.84l17.58 62.27c2.67.75 5.35 1.33 7.99 1.74 2.65.42 5.14.72 7.5.96 2.28.24 4.32.36 6.02.36 1.75.06 2.94.06 3.62.06 5.29 0 9.7-.72 13.36-2.1 3.67-1.38 6.4-3.3 8.23-5.7 1.83-2.4 2.61-5.28 2.55-8.53-.08-3.3-1.27-6.73-3.55-10.39-1.49-2.4-3.29-4.62-5.41-6.66s-4.52-3.84-7.19-5.41a39.355 39.355 0 0 0-8.84-3.66c-3.2-.9-6.66-1.38-10.24-1.38-1.7 0-3.25.12-4.52.42-1.39.24-2.53.6-3.76 1.08l-6.53-23.06"/><path fill="#335CFF" d="M241.157 318.367c1.75.06 2.94.06 3.62.06 5.29 0 9.7-.72 13.37-2.1 3.67-1.38 6.4-3.3 8.23-5.7 1.84-2.4 2.61-5.28 2.55-8.53-.08-3.3-1.27-6.73-3.55-10.39-1.49-2.4-3.29-4.62-5.41-6.66s-4.52-3.84-7.19-5.41c-.36-.21-.74-.39-1.11-.58l-5.7 9.55c1.13 1.13 2.18 2.43 3.13 3.95 1.27 2.04 1.98 4.02 2.24 5.94.21 1.86-.07 3.6-.84 5.11-.75 1.47-2.05 2.69-3.82 3.6-1.71.96-3.92 1.38-6.56 1.38-.85 0-1.54 0-1.92.06-.6 0-1.32-.06-3.68-.3l-.1-.35-5.51 9.24c2.18.32 4.25.57 6.24.77 2.28.24 4.32.36 6.02.36h-.01Z"/><path stroke="#2040C4" stroke-linecap="round" stroke-linejoin="round" d="m232.217 318.737 25.91-43.45m-22.63 45.18 25.91-43.45"/><path fill="#335CFF" d="m343.777 376.727 1.98-5.22c.97-2.56.46-5.87-1.77-9.46l-61.79-99.57c-5-8.06-16.86-14.66-26.35-14.66l-.84 2.21-5.11 3.01h3.97c9.49 0 21.35 6.6 26.35 14.66l61.79 99.57c2.23 3.6 2.74 6.91 1.77 9.46Z"/><path fill="#fff" stroke="#fff" stroke-linecap="round" stroke-linejoin="round" d="M266.097 255.997s-1.83-1.12-.93-3.51l.96-2.53-2.56-.9-1 2.63a2.731 2.731 0 0 0 1.62 3.53l1.92.78h-.01Z"/><path fill="#111E4C" d="M324.147 372.387c3.88 0 5.39-2.7 3.34-6l-12.4-19.98c-2.05-3.3-6.9-6-10.79-6h-103c-3.88 0-5.39 2.7-3.34 6l12.4 19.98c2.05 3.3 6.9 6 10.79 6h103Z"/><path fill="#D7DCE0" d="M256.177 356.067h-2.27c-2.03-3.27.02-5.93 4.56-5.93h3.97l1.01 1.63h-3.97c-3.3 0-4.78 1.93-3.31 4.3h.01Zm9.66 5.94h-3.97l-1.01-1.63h3.97c3.3 0 4.78-1.93 3.31-4.3h2.27c2.03 3.27-.02 5.93-4.56 5.93h-.01Zm39.17.28h-2.27l-7.11-11.46h2.27l7.11 11.46Z"/><path fill="#D7DCE0" d="m293.557 355.247-2.2-1.28 4.77-4.18 9.76 4.19-.64 1.27-7.84-3.37-3.85 3.37Zm-30.76-1.14-2.39-1.03 1.08-2.14-3.79-2.21 1.15-1.01 5.56 3.24-1.61 3.15Zm2.67 10.31-5.56-3.24 1.61-3.15 2.39 1.03-1.08 2.14 3.79 2.21-1.15 1.01Zm-33.06-6.09c-.39-.63-.93-1.15-1.61-1.57a9.53 9.53 0 0 0-2.27-1c-.83-.25-1.67-.44-2.5-.57l-1.58-.26c-.46-.07-.92-.16-1.39-.28-.47-.12-.89-.27-1.27-.47-.38-.2-.66-.45-.84-.75-.25-.41-.22-.75.1-1.02s.9-.4 1.76-.4 1.56.13 2.23.39c.67.26 1.18.62 1.54 1.08h2.64c-.4-.61-.97-1.16-1.72-1.63s-1.62-.84-2.6-1.11c-.6-.17-1.23-.27-1.87-.34l-1.16-1.87h-2.64l1.18 1.9c-.45.07-.85.17-1.19.31-.67.27-1.1.64-1.28 1.12-.18.48-.08 1.04.32 1.68.48.78 1.23 1.4 2.24 1.87 1.01.47 2.21.82 3.6 1.05l1.92.32c.91.15 1.68.33 2.31.55.63.22 1.08.54 1.34.96.28.46.24.84-.14 1.12-.38.29-1.02.43-1.91.43-.89 0-1.67-.14-2.44-.42-.77-.28-1.36-.71-1.77-1.28h-2.69c.72 1.08 1.79 1.91 3.21 2.5 1.02.42 2.13.69 3.33.81l1.21 1.95h2.64l-1.2-1.93c1.15-.11 1.97-.39 2.45-.84.64-.59.66-1.37.07-2.33l-.02.03Z"/><path stroke="#2040C4" stroke-miterlimit="10" d="m275.127 346.397 12.4 19.99m-50.49-19.99 12.4 19.99"/><path fill="#fff" d="M88.687 247.807c-10.17 0-15.6-7.42-12.13-16.58 1.07-2.82 2.86-5.48 5.11-7.8l125.73-129.47c4.76-4.9 11.02-5.74 16.02-2.82l-4.19-2.45c-5-2.93-11.26-2.09-16.02 2.82l-125.72 129.47c-2.97 3.06-5.32 6.54-6.72 10.25-4.56 12.04 2.58 21.8 15.95 21.8h164.38c1.67 0 3.17-1.03 3.76-2.6l.99-2.62H88.687Z"/><path stroke="#fff" stroke-linecap="round" stroke-linejoin="round" d="M265.057 255.547c6.23 2.64 12.03 7.11 15.16 12.15l61.79 99.57c2.23 3.6 2.74 6.91 1.77 9.46"/><path stroke="#111E4C" stroke-linecap="round" stroke-linejoin="round" d="m343.987 362.047-61.79-99.57c-5-8.06-16.86-14.66-26.35-14.66H88.687c-10.17 0-15.6-7.42-12.13-16.58 1.07-2.82 2.86-5.48 5.11-7.8l125.73-129.47c4.76-4.9 11.02-5.74 16.02-2.82l-4.19-2.45c-5-2.93-11.26-2.09-16.02 2.82l-125.72 129.47c-2.97 3.06-5.32 6.54-6.72 10.25-2.11 5.58-1.71 10.68.66 14.53.27.44.61.99 1 1.62l79.01 127.32c2.75 4.43 8.12 7.22 15.26 7.22h167.16c5.29 0 8.74-1.99 9.93-5.2 0 .02 1.98-5.22 1.98-5.22.97-2.56.46-5.87-1.77-9.46h-.01Z"/><path fill="url(#a)" d="m237.147 570.957-4.55-128.61c-.4-11.31-5.15-28.69-10.56-38.63l-12.6-23.18c-2.18-4-6.46-10.04-9.53-13.41l-18.12-19.96c-2.26-2.49-5.16-7.05-6.46-10.15l-10.25-24.51c-1.3-3.1-3.93-7.88-5.85-10.64l-13.05-18.7c-5.67-8.12-12.78-8.88-18.14-6.89-13.61 5.05-12.59 17.99-5.8 34.8l12.56 31.09a41.417 41.417 0 0 1 3.01 15.27l.08 13.95a6.33 6.33 0 0 1-6.47 6.38l-18.26-.35c-5.08-.1-11.57-3.61-14.42-7.81l-26.77-39.32c-5.49-8.06-14.57-11.75-14.57-11.75l-13.56-30c-4.22-9.33-8.35-12.23-8.35-12.23l-1.47-46.36c-.19-4.98-4.01-40.33-23.08-38.37-3.97.41-6.96 4-6.62 7.98l1.16 13.88-1.76 57.42c-.17 5.66-4.38 14.12-1 22.24l26.53 63.79c4.46 10.73.56 26.18 8.18 35.65l90.24 112.02c7.1 8.81 12.51 25.27 12.03 36.58l-1.76 41.27"/><path stroke="#111E4C" stroke-linecap="round" stroke-linejoin="round" d="m237.147 570.957-4.55-128.61c-.4-11.31-5.15-28.69-10.56-38.63l-12.6-23.18c-2.18-4-6.46-10.04-9.53-13.41l-18.12-19.96c-2.26-2.49-5.16-7.05-6.46-10.15l-10.25-24.51c-1.3-3.1-3.93-7.88-5.85-10.64l-13.05-18.7c-5.67-8.12-12.78-8.88-18.14-6.89-13.61 5.05-12.59 17.99-5.8 34.8l12.56 31.09a41.417 41.417 0 0 1 3.01 15.27l.08 13.95a6.33 6.33 0 0 1-6.47 6.38l-18.26-.35c-5.08-.1-11.57-3.61-14.42-7.81l-26.77-39.32c-5.49-8.06-14.57-11.75-14.57-11.75l-13.56-30c-4.22-9.33-8.35-12.23-8.35-12.23l-1.47-46.36c-.19-4.98-4.01-40.33-23.08-38.37-3.97.41-6.96 4-6.62 7.98l1.16 13.88-1.76 57.42c-.17 5.66-4.38 14.12-1 22.24l26.53 63.79c4.46 10.73.56 26.18 8.18 35.65l90.24 112.02c7.1 8.81 12.51 25.27 12.03 36.58l-1.76 41.27m-.83-207.92-5.82 12.46"/><path stroke="#111E4C" stroke-linecap="round" stroke-linejoin="round" d="M28.757 273.887c-2.29-.5-5.54-1.01-5.54-1.01m75.77 104.27 14.18.27m-22.93-.44 3.96.07m-36.79-58.51c-4.76-1.73-8.69-1.8-8.69-1.8m96.99-30.83 1.74 7.05c.4 1.6-.52 3.43-2.04 4.07l-12.61 5.32c-1.76.74-4.18.14-5.38-1.35l-5.72-7.07a6.721 6.721 0 0 1-.43-7.85c2.59-4.03 7.52-9.08 15.48-7.54"/><defs><linearGradient id="a" x1="95.479" x2="119.277" y1="428.391" y2="582.407" gradientUnits="userSpaceOnUse"><stop stop-color="#fff"/><stop offset="1" stop-color="#fff" stop-opacity="0"/></linearGradient></defs></svg>