<svg xmlns="http://www.w3.org/2000/svg" width="1440" height="539" fill="none"><path fill="#2240C4" fill-rule="evenodd" d="M-40.006.27H94.34v134.615H-40.006V.271ZM94.34.272h403.036v134.615l-403.036-.001V.271Z" clip-rule="evenodd"/><path fill="#3552D4" fill-rule="evenodd" d="M228.685 269.5v269.229h268.691V269.5H228.685Z" clip-rule="evenodd"/><path fill="#2240C4" fill-rule="evenodd" d="M-40.005 404.115v134.614h268.69V404.115h-268.69Z" clip-rule="evenodd"/><path fill="#14296E" fill-rule="evenodd" d="M-40.005 134.886v269.229L94.34 538.729l134.346-134.614L363.031 269.5H228.686V134.886H-40.005Z" clip-rule="evenodd"/><path fill="#1F3AB3" d="M720.005.27H497.324v.053L363.032 134.885l-268.692-.001L228.685 269.5h268.691V134.885h222.629V.271Z"/><path fill="#2240C4" fill-rule="evenodd" d="M486.054 538.729V415.46l11.322-11.344v134.613h-11.322Zm-21.396 0V436.898l11.322-11.344v113.175h-11.322Zm-21.396 0v-80.393l11.322-11.344v91.737h-11.322Zm-21.396 0v-58.955l11.321-11.343v70.298h-11.321Zm-21.396 0v-37.517l11.322-11.345v48.86H400.47v.002Zm-21.396 0V522.65l11.322-11.342v27.421h-11.322Zm-10.075-5.981v5.981h-5.968l5.968-5.981Z" clip-rule="evenodd"/><path fill="#335CFF" fill-rule="evenodd" d="M486.054 269.5V146.23l11.322-11.344V269.5h-11.322Zm-21.396 0V167.669l11.323-11.345V269.5h-11.323Zm-21.396 0v-80.392l11.322-11.345V269.5h-11.322Zm-21.396 0v-58.953l11.321-11.345V269.5h-11.321Zm-21.396 0v-37.515l11.322-11.344V269.5H400.47Zm-21.396 0v-16.075l11.322-11.344V269.5h-11.322ZM369 263.519v5.981h-5.969l5.969-5.981Z" clip-rule="evenodd"/><path fill="#14296E" fill-rule="evenodd" d="M258.237 222.745c0-.898.54-1.709 1.369-2.053a2.212 2.212 0 0 1 2.416.482c.634.635.824 1.591.481 2.421a2.218 2.218 0 0 1-2.049 1.371 2.22 2.22 0 0 1-2.217-2.221Zm22.346 0a2.216 2.216 0 0 1 3.785-1.572c.634.635.824 1.591.481 2.421a2.217 2.217 0 0 1-4.266-.849Zm0-18.92a2.216 2.216 0 0 1 3.785-1.572c.634.635.824 1.591.481 2.421a2.218 2.218 0 0 1-2.049 1.372 2.22 2.22 0 0 1-2.217-2.221Zm22.346 18.92a2.222 2.222 0 0 1 1.368-2.053 2.214 2.214 0 0 1 2.417.482 2.223 2.223 0 0 1-1.569 3.792 2.219 2.219 0 0 1-2.216-2.221Zm0-18.92a2.22 2.22 0 0 1 1.368-2.053 2.214 2.214 0 0 1 2.416.481c.635.636.824 1.591.481 2.422a2.218 2.218 0 0 1-2.049 1.371 2.22 2.22 0 0 1-2.216-2.221Zm22.345 18.92a2.215 2.215 0 0 1 3.785-1.572c.634.635.824 1.591.481 2.421a2.217 2.217 0 0 1-4.266-.849Zm.001-18.92a2.22 2.22 0 0 1 1.368-2.053 2.214 2.214 0 0 1 2.416.481c.634.635.824 1.591.481 2.421a2.217 2.217 0 0 1-4.265-.849Zm0-18.669a2.22 2.22 0 0 1 2.217-2.222 2.22 2.22 0 0 1 2.217 2.222 2.22 2.22 0 0 1-2.217 2.222 2.22 2.22 0 0 1-2.217-2.222Zm22.345 37.587c0-1.226.992-2.22 2.216-2.22 1.224 0 2.217.994 2.217 2.22a2.219 2.219 0 0 1-2.217 2.221 2.22 2.22 0 0 1-2.216-2.221Zm0-18.92c0-1.226.992-2.221 2.216-2.221a2.22 2.22 0 0 1 2.217 2.221 2.219 2.219 0 0 1-2.217 2.221 2.22 2.22 0 0 1-2.216-2.221Zm0-18.669a2.22 2.22 0 0 1 2.217-2.22 2.22 2.22 0 0 1 0 4.442 2.222 2.222 0 0 1-2.217-2.222Zm0-18.92a2.22 2.22 0 0 1 2.217-2.22 2.22 2.22 0 0 1 2.216 2.22 2.218 2.218 0 0 1-3.784 1.571 2.224 2.224 0 0 1-.649-1.571Zm22.344 56.511a2.216 2.216 0 0 1 3.785-1.572c.634.635.824 1.591.481 2.421a2.217 2.217 0 0 1-4.266-.849Zm0-18.92a2.216 2.216 0 0 1 3.785-1.572c.634.635.824 1.591.481 2.421a2.218 2.218 0 0 1-2.049 1.372 2.22 2.22 0 0 1-2.217-2.221Zm0-18.669a2.22 2.22 0 0 1 2.217-2.222 2.22 2.22 0 0 1 2.217 2.222 2.22 2.22 0 0 1-2.217 2.222 2.22 2.22 0 0 1-2.217-2.222Zm0-18.92a2.22 2.22 0 0 1 2.217-2.222 2.22 2.22 0 0 1 2.217 2.222 2.218 2.218 0 0 1-2.217 2.221 2.219 2.219 0 0 1-2.217-2.221Zm0-18.919a2.216 2.216 0 0 1 3.785-1.573c.634.636.824 1.591.481 2.422a2.217 2.217 0 0 1-4.266-.849Zm22.345 75.428c0-.898.54-1.709 1.369-2.053a2.214 2.214 0 0 1 2.416.481c.634.635.824 1.591.481 2.421a2.216 2.216 0 0 1-4.266-.849Zm0-18.92c0-.899.54-1.709 1.369-2.053a2.214 2.214 0 0 1 2.416.481c.634.635.824 1.591.481 2.421a2.218 2.218 0 0 1-2.048 1.372 2.22 2.22 0 0 1-2.218-2.221Zm.001-18.669a2.22 2.22 0 0 1 2.217-2.222 2.22 2.22 0 0 1 2.217 2.222 2.22 2.22 0 0 1-2.217 2.222 2.22 2.22 0 0 1-2.217-2.222Zm0-18.92a2.22 2.22 0 0 1 2.217-2.222 2.22 2.22 0 0 1 2.217 2.222 2.219 2.219 0 0 1-2.217 2.221 2.218 2.218 0 0 1-2.217-2.221Zm0-18.919a2.221 2.221 0 0 1 1.368-2.054 2.214 2.214 0 0 1 2.416.481c.635.636.824 1.591.481 2.422a2.216 2.216 0 0 1-4.265-.849Zm0-18.849a2.22 2.22 0 0 1 1.368-2.053 2.214 2.214 0 0 1 2.416.481 2.223 2.223 0 0 1-1.567 3.793 2.219 2.219 0 0 1-2.217-2.221Z" clip-rule="evenodd"/><path fill="#335CFF" fill-rule="evenodd" d="M48.266 292.389v89.008h6.584v-89.008h-6.584Zm-12.441 0v89.008h6.583v-89.008h-6.583Zm-12.441 0v89.008h6.583v-89.008h-6.583Zm-12.441 0v89.007h6.583v-89.007h-6.583Zm-12.442 0v89.007h6.584v-89.007H-1.5ZM210.516 21.648v91.86a67.636 67.636 0 0 0 11.664-17.311V38.96a67.652 67.652 0 0 0-11.664-17.313ZM188.472 5.863v41.971c8.486 11.793 8.486 27.705 0 39.497v41.971a67.217 67.217 0 0 0 11.664-6.662V12.524a67.286 67.286 0 0 0-11.664-6.661ZM166.428.283V34.24a33.424 33.424 0 0 1 11.664 4.161V2.231A67.027 67.027 0 0 0 166.428.284Zm0 100.633v33.952a67.162 67.162 0 0 0 11.664-1.948V96.757a33.403 33.403 0 0 1-11.664 4.16v-.001ZM144.385 2.189v36.113a33.418 33.418 0 0 1 11.664-4.088V.271c-3.936.295-7.84.936-11.664 1.918Zm0 94.667v36.113a67.041 67.041 0 0 0 11.664 1.917v-33.943a33.413 33.413 0 0 1-11.664-4.087Zm-22.044-84.45v110.341a67.281 67.281 0 0 0 11.664 6.619V87.56c-8.71-11.89-8.71-28.07 0-39.96V5.79a67.268 67.268 0 0 0-11.664 6.618v-.001Zm-22.043 26.198v57.949a67.628 67.628 0 0 0 11.665 17.136V21.468a67.642 67.642 0 0 0-11.665 17.136Z" clip-rule="evenodd"/><path fill="#14296E" fill-rule="evenodd" d="M228.69 471.422v33.649h33.582v33.654h33.582v-33.65h33.582v33.654h33.582v-33.654h-33.582v-33.649h-33.579v33.649h-33.582v-33.649h-33.582l-.003-.004Z" clip-rule="evenodd"/><path fill="#1F3AB3" fill-rule="evenodd" d="M217.367 269.5v123.27l11.322 11.345V269.5h-11.322Zm-21.4 0v101.831l11.322 11.344V269.5h-11.322Zm-21.396 0v80.392l11.322 11.344V269.5h-11.322Zm-21.395 0v58.953l11.321 11.344V269.5h-11.321Zm-21.396 0v37.514l11.321 11.344V269.5H131.78Zm-21.396 0v16.076l11.321 11.344V269.5h-11.321Zm-10.075 5.981V269.5h-5.97l5.97 5.981Z" clip-rule="evenodd"/><path fill="#2240C4" fill-rule="evenodd" d="M332.663 315.787a1.13 1.13 0 0 0 1.927.8 1.133 1.133 0 0 0-.798-1.932 1.131 1.131 0 0 0-1.129 1.132Zm0 9.626a1.131 1.131 0 1 0 2.26 0 1.131 1.131 0 0 0-1.929-.801 1.134 1.134 0 0 0-.331.801Zm0 9.626a1.128 1.128 0 0 0 1.928.8c.322-.323.419-.81.244-1.233a1.13 1.13 0 0 0-2.172.433Zm0 9.626a1.128 1.128 0 0 0 1.928.8c.322-.323.419-.81.244-1.233a1.13 1.13 0 0 0-2.172.433Zm0 9.627a1.129 1.129 0 0 0 1.929.802c.323-.324.42-.811.245-1.235a1.13 1.13 0 0 0-2.174.433Zm0 9.626a1.131 1.131 0 1 0 2.174-.432 1.13 1.13 0 0 0-2.174.432Zm0 9.626a1.13 1.13 0 0 0 1.928.8 1.134 1.134 0 0 0-.799-1.932 1.131 1.131 0 0 0-1.129 1.132Zm0 9.626a1.131 1.131 0 1 0 2.174-.432 1.13 1.13 0 0 0-2.174.432Zm0 9.627a1.129 1.129 0 0 0 1.929.802c.323-.324.42-.811.245-1.235a1.13 1.13 0 0 0-2.174.433Zm0 9.626a1.131 1.131 0 1 0 2.174-.432 1.13 1.13 0 0 0-2.174.432Zm11.439-86.635a1.128 1.128 0 0 0 1.928.8 1.132 1.132 0 0 0-.798-1.931 1.13 1.13 0 0 0-1.13 1.131Zm0 9.627a1.13 1.13 0 1 0 2.261-.001 1.13 1.13 0 0 0-2.261.001Zm0 9.626a1.13 1.13 0 1 0 2.26.001 1.13 1.13 0 0 0-2.26-.001Zm0 9.626c0 .625.506 1.132 1.13 1.132a1.131 1.131 0 0 0 0-2.264c-.624 0-1.13.507-1.13 1.132Zm0 9.626a1.13 1.13 0 1 0 2.259-.001 1.13 1.13 0 1 0-2.259.001Zm0 9.627a1.13 1.13 0 1 0 0-.003v.003Zm0 9.626c0 .625.506 1.132 1.13 1.132a1.131 1.131 0 0 0 0-2.264c-.624 0-1.13.507-1.13 1.132Zm0 9.626a1.13 1.13 0 1 0 2.259-.001 1.132 1.132 0 0 0-1.13-1.132 1.132 1.132 0 0 0-1.129 1.133Zm0 9.626c0 .625.506 1.132 1.13 1.132a1.131 1.131 0 0 0 0-2.263 1.13 1.13 0 0 0-1.13 1.131Zm0 9.627a1.13 1.13 0 1 0 2.257 0 1.13 1.13 0 0 0-2.257 0Zm11.44-86.635a1.13 1.13 0 0 0 1.129 1.132 1.13 1.13 0 0 0 1.129-1.132 1.13 1.13 0 1 0-2.258 0Zm0 9.627a1.13 1.13 0 0 0 1.132 1.128 1.13 1.13 0 1 0-1.134-1.131l.002.003Zm0 9.626a1.128 1.128 0 0 0 1.927.8 1.133 1.133 0 0 0-.798-1.932 1.13 1.13 0 0 0-1.129 1.132Zm0 9.626a1.13 1.13 0 0 0 1.927.8 1.133 1.133 0 0 0-.798-1.932 1.13 1.13 0 0 0-1.129 1.132Zm0 9.626a1.13 1.13 0 0 0 1.129 1.132 1.13 1.13 0 0 0 1.129-1.132 1.13 1.13 0 1 0-2.258 0Zm0 9.627a1.13 1.13 0 1 0 2.258-.002 1.13 1.13 0 0 0-2.258-.003v.005Zm0 9.626a1.13 1.13 0 1 0 2.258 0 1.13 1.13 0 0 0-1.129-1.132 1.13 1.13 0 0 0-1.129 1.132Zm0 9.626a1.13 1.13 0 1 0 2.258-.001 1.131 1.131 0 0 0-1.928-.8 1.13 1.13 0 0 0-.33.801Zm0 9.626a1.13 1.13 0 0 0 1.129 1.132 1.13 1.13 0 0 0 1.129-1.132 1.13 1.13 0 0 0-1.129-1.132 1.13 1.13 0 0 0-1.129 1.132Zm0 9.626a1.13 1.13 0 1 0 2.258-.001 1.13 1.13 0 1 0-2.258.001Zm11.439-86.634a1.13 1.13 0 1 0 2.26.001 1.13 1.13 0 0 0-2.26-.001Zm0 9.626a1.13 1.13 0 1 0 2.259-.001 1.13 1.13 0 1 0-2.259.001Zm0 9.627a1.13 1.13 0 1 0 2.257 0 1.13 1.13 0 0 0-2.257 0Zm0 9.626c0 .457.276.87.698 1.045.422.175.907.079 1.23-.245a1.133 1.133 0 0 0-.798-1.932c-.624 0-1.13.507-1.13 1.132Zm0 9.626a1.132 1.132 0 0 0 1.13 1.131 1.131 1.131 0 1 0-.799-1.932 1.136 1.136 0 0 0-.331.801Zm0 9.626a1.13 1.13 0 1 0 2.259-.001 1.13 1.13 0 1 0-2.259.001Zm0 9.626c0 .458.276.871.698 1.046a1.132 1.132 0 1 0 .432-2.177 1.13 1.13 0 0 0-1.13 1.131Zm0 9.627a1.13 1.13 0 1 0 2.259-.001 1.131 1.131 0 0 0-1.928-.8c-.212.212-.331.5-.331.801Zm0 9.626c0 .625.506 1.132 1.13 1.132a1.131 1.131 0 0 0 0-2.264c-.624 0-1.13.507-1.13 1.132Zm0 9.626c0 .625.506 1.132 1.13 1.132a1.131 1.131 0 0 0 0-2.263 1.13 1.13 0 0 0-1.13 1.131Zm11.444-86.641a1.13 1.13 0 1 0 2.26.001 1.13 1.13 0 0 0-2.26-.001Zm0 9.626a1.132 1.132 0 0 0 1.13 1.131 1.131 1.131 0 1 0-.799-1.932 1.136 1.136 0 0 0-.331.801Zm0 9.626c0 .625.506 1.132 1.13 1.132a1.131 1.131 0 0 0 0-2.264c-.624 0-1.13.507-1.13 1.132Zm0 9.626c0 .625.506 1.132 1.13 1.132a1.131 1.131 0 0 0 0-2.263 1.13 1.13 0 0 0-1.13 1.131Zm0 9.627a1.13 1.13 0 1 0 2.26.001 1.13 1.13 0 0 0-2.26-.001Zm0 9.626a1.132 1.132 0 0 0 1.13 1.131 1.131 1.131 0 1 0-.799-1.932 1.136 1.136 0 0 0-.331.801Zm0 9.626c0 .625.506 1.132 1.13 1.132a1.131 1.131 0 0 0 0-2.264c-.624 0-1.13.507-1.13 1.132Zm0 9.626a1.13 1.13 0 1 0 2.259-.001 1.13 1.13 0 0 0-2.259-.002v.003Zm0 9.626c0 .625.506 1.132 1.13 1.132a1.131 1.131 0 0 0 0-2.263 1.13 1.13 0 0 0-1.13 1.131Zm0 9.627a1.13 1.13 0 1 0 2.26.001 1.13 1.13 0 0 0-2.26-.001Zm11.44-86.635a1.128 1.128 0 0 0 1.928.8 1.13 1.13 0 1 0-1.928-.8Zm0 9.627a1.13 1.13 0 1 0 2.259-.002 1.132 1.132 0 0 0-1.929-.799c-.211.212-.33.5-.33.801Zm0 9.626a1.13 1.13 0 1 0 2.173-.433 1.13 1.13 0 0 0-2.176.43l.003.003Zm0 9.626a1.128 1.128 0 0 0 1.928.8 1.13 1.13 0 1 0-1.928-.8Zm0 9.626a1.128 1.128 0 0 0 1.928.8 1.13 1.13 0 1 0-1.928-.8Zm0 9.627a1.13 1.13 0 1 0 2.259-.002 1.132 1.132 0 0 0-1.929-.799c-.211.212-.33.5-.33.801Zm0 9.626a1.13 1.13 0 1 0 2.173-.433 1.13 1.13 0 0 0-2.173.433Zm0 9.626a1.13 1.13 0 1 0 1.129-1.132 1.131 1.131 0 0 0-1.129 1.132Zm0 9.626a1.128 1.128 0 0 0 1.928.8 1.13 1.13 0 1 0-1.928-.8Zm0 9.627a1.13 1.13 0 1 0 2.259-.002 1.132 1.132 0 0 0-1.929-.799c-.211.212-.33.5-.33.801Zm11.436-86.638a1.13 1.13 0 1 0 2.259 0c0-.625-.506-1.132-1.13-1.132-.623 0-1.129.507-1.129 1.132Zm0 9.626c0 .625.506 1.132 1.129 1.132a1.131 1.131 0 0 0 0-2.264c-.623 0-1.129.507-1.129 1.132Zm0 9.626c0 .625.506 1.132 1.129 1.132a1.131 1.131 0 0 0 0-2.264c-.623 0-1.129.507-1.129 1.132Zm0 9.626c0 .625.506 1.132 1.129 1.132a1.131 1.131 0 0 0 0-2.263 1.13 1.13 0 0 0-1.129 1.131Zm0 9.627a1.13 1.13 0 1 0 2.259 0c0-.625-.506-1.132-1.13-1.132-.623 0-1.129.507-1.129 1.132Zm0 9.626c0 .625.506 1.132 1.129 1.132a1.131 1.131 0 0 0 0-2.264c-.623 0-1.129.507-1.129 1.132Zm0 9.626c0 .625.506 1.132 1.129 1.132a1.131 1.131 0 0 0 0-2.264c-.623 0-1.129.507-1.129 1.132Zm0 9.626c0 .625.506 1.132 1.129 1.132a1.131 1.131 0 0 0 0-2.264c-.623 0-1.129.507-1.129 1.132Zm0 9.626c0 .625.506 1.132 1.129 1.132a1.131 1.131 0 0 0 0-2.263 1.13 1.13 0 0 0-1.129 1.131Zm0 9.627a1.13 1.13 0 1 0 2.259 0c0-.625-.506-1.132-1.13-1.132-.623 0-1.129.507-1.129 1.132Zm11.44-86.635a1.128 1.128 0 0 0 1.928.8 1.132 1.132 0 0 0-.799-1.931 1.13 1.13 0 0 0-1.129 1.131Zm-.001 9.627a1.13 1.13 0 1 0 2.261-.001 1.13 1.13 0 0 0-2.261.001Zm0 9.626a1.13 1.13 0 1 0 2.26.001 1.13 1.13 0 0 0-2.26-.001Zm0 9.626c0 .625.506 1.132 1.13 1.132a1.131 1.131 0 0 0 0-2.263c-.624 0-1.129.506-1.13 1.131Zm0 9.626c0 .625.506 1.132 1.13 1.132a1.131 1.131 0 0 0 0-2.263c-.624 0-1.129.507-1.13 1.131Zm0 9.627a1.13 1.13 0 1 0 2.26.001 1.13 1.13 0 0 0-2.26-.001Zm0 9.626c0 .625.506 1.132 1.13 1.132a1.131 1.131 0 0 0 0-2.264 1.132 1.132 0 0 0-1.13 1.132Zm0 9.626a1.13 1.13 0 1 0 2.26.001 1.13 1.13 0 0 0-2.26-.001Zm0 9.626c0 .625.506 1.132 1.13 1.132a1.131 1.131 0 0 0 0-2.263 1.13 1.13 0 0 0-1.13 1.131Zm0 9.627a1.13 1.13 0 1 0 2.257 0 1.13 1.13 0 0 0-2.257 0Z" clip-rule="evenodd"/><path fill="#14296E" fill-rule="evenodd" d="M497.323 134.885v269.229h222.683V134.885H497.323Z" clip-rule="evenodd"/><path fill="#2240C4" fill-rule="evenodd" d="M497.323 404.114v134.615h222.682V404.114H497.323Z" clip-rule="evenodd"/><path fill="#1F3AB3" fill-rule="evenodd" d="M720.005 269.499h-88.337l88.337 88.514v-88.514Z" clip-rule="evenodd"/><path fill="#2240C4" fill-rule="evenodd" d="M720.005 269.499h-88.337l88.337-88.514v88.514Z" clip-rule="evenodd"/><path fill="#14296E" fill-rule="evenodd" d="M642.989.27v123.271l-11.322 11.344V.271h11.322Zm21.396 0v101.831l-11.322 11.345V.271h11.322Zm21.396 0v80.392l-11.322 11.345V.271h11.322Zm21.396 0v58.953l-11.321 11.345V.271h11.321Zm12.829 46.1-2.754 2.759V.27h2.754v46.1ZM508.644 404.114v123.27l-11.321 11.345V404.114h11.321Zm21.396 0v101.832l-11.321 11.344V404.114h11.321Zm21.397 0v80.393l-11.322 11.344v-91.737h11.322Zm21.396 0v58.953l-11.322 11.345v-70.298h11.322Zm21.396 0v37.514l-11.322 11.345v-48.859h11.322Zm21.396 0v16.075l-11.321 11.344v-27.419h11.321Zm10.074 5.981v-5.981h5.969l-5.969 5.981Z" clip-rule="evenodd"/><path fill="#2240C4" fill-rule="evenodd" d="M564.461 80.184h12.76v12.785h12.76V80.184h-12.76V54.972h12.76V42.186h-12.76v12.786h-25.45V42.187h-12.756v12.785h12.76v25.212h-12.76v12.785h12.76V80.184h12.69-.004Z" clip-rule="evenodd"/><path fill="#14296E" fill-rule="evenodd" d="M1.44 54.757v12.82h12.794v12.82H27.03v-12.82H14.234v-12.82H1.44Z" clip-rule="evenodd"/><path fill="#2240C4" fill-rule="evenodd" d="M1480.01 538.729h-134.35V404.115h134.35v134.614Zm-134.35 0H942.624V404.115h403.036v134.614Z" clip-rule="evenodd"/><path fill="#3552D4" fill-rule="evenodd" d="M1211.31 269.5V.27H942.624V269.5h268.686Z" clip-rule="evenodd"/><path fill="#2240C4" fill-rule="evenodd" d="M1480.01 134.885V.271h-268.7v134.614h268.7Z" clip-rule="evenodd"/><path fill="#14296E" fill-rule="evenodd" d="M1480.01 404.114V134.885L1345.66.271l-134.35 134.614L1076.97 269.5h134.34v134.614h268.7Z" clip-rule="evenodd"/><path fill="#1F3AB3" d="M719.996 538.729h222.68v-.052l134.294-134.562 268.69.001L1211.32 269.5H942.625v134.615H719.996v134.614Z"/><path fill="#2240C4" fill-rule="evenodd" d="M953.946.27v123.27l-11.322 11.344V.271h11.322Zm21.396 0v101.832l-11.322 11.344V.271h11.322Zm21.396.001v80.393l-11.321 11.344V.271h11.321ZM1018.13.27v58.956l-11.32 11.343V.271h11.32Zm21.4 0v37.518l-11.32 11.345V.273h11.32V.272Zm21.4.001v16.08l-11.33 11.34V.272h11.33ZM1071 6.252V.27h5.97L1071 6.25Z" clip-rule="evenodd"/><path fill="#335CFF" fill-rule="evenodd" d="M953.946 269.5v123.27l-11.322 11.344V269.5h11.322Zm21.396 0v101.831l-11.322 11.345V269.5h11.322Zm21.396 0v80.392l-11.321 11.345V269.5h11.321Zm21.392 0v58.953l-11.32 11.345V269.5h11.32Zm21.4 0v37.515l-11.32 11.344V269.5h11.32Zm21.4 0v16.076l-11.33 11.344V269.5h11.33Zm10.07 5.981V269.5h5.97l-5.97 5.981Z" clip-rule="evenodd"/><path fill="#14296E" fill-rule="evenodd" d="M1181.76 316.255a2.22 2.22 0 0 1-1.37 2.053c-.82.344-1.78.154-2.41-.481a2.204 2.204 0 0 1-.48-2.422 2.213 2.213 0 0 1 4.26.85Zm-22.34 0a2.222 2.222 0 0 1-3.79 1.572 2.238 2.238 0 0 1-.48-2.421 2.214 2.214 0 0 1 2.05-1.372c1.22 0 2.22.994 2.22 2.221Zm0 18.92a2.22 2.22 0 0 1-3.79 1.572 2.238 2.238 0 0 1-.48-2.421 2.213 2.213 0 0 1 2.05-1.371c1.22 0 2.22.994 2.22 2.22Zm-22.35-18.92a2.22 2.22 0 0 1-1.37 2.053c-.83.344-1.78.154-2.41-.481a2.204 2.204 0 0 1-.48-2.422 2.21 2.21 0 0 1 2.04-1.371c1.23.001 2.22.995 2.22 2.221Zm0 18.92a2.22 2.22 0 0 1-1.37 2.053c-.83.344-1.78.154-2.41-.481a2.202 2.202 0 0 1-.48-2.421 2.21 2.21 0 0 1 2.05-1.371c1.22 0 2.21.994 2.21 2.22Zm-22.34-18.92a2.222 2.222 0 0 1-3.79 1.572 2.238 2.238 0 0 1-.48-2.421 2.214 2.214 0 0 1 2.05-1.372c1.22 0 2.22.994 2.22 2.221Zm0 18.92a2.22 2.22 0 0 1-3.79 1.572 2.238 2.238 0 0 1-.48-2.421 2.213 2.213 0 0 1 2.05-1.371c1.22 0 2.21.994 2.22 2.22Zm-.01 18.669c0 1.227-.99 2.222-2.21 2.222-1.23 0-2.22-.995-2.22-2.222a2.216 2.216 0 1 1 4.43 0Zm-22.34-37.587a2.215 2.215 0 1 1-4.43 0 2.216 2.216 0 1 1 4.43 0Zm0 18.92c0 1.226-.99 2.221-2.22 2.221-1.22 0-2.21-.995-2.21-2.221s.99-2.221 2.21-2.221c1.23.001 2.22.995 2.22 2.221Zm0 18.669a2.216 2.216 0 1 1-4.43-.001c0-1.226.99-2.22 2.21-2.221a2.223 2.223 0 0 1 2.22 2.222Zm0 18.92a2.215 2.215 0 1 1-4.43 0c0-1.227.99-2.221 2.21-2.221a2.218 2.218 0 0 1 2.22 2.221Zm-22.34-56.511a2.222 2.222 0 0 1-3.79 1.572 2.238 2.238 0 0 1-.48-2.421 2.214 2.214 0 0 1 2.05-1.372c1.22 0 2.22.994 2.22 2.221Zm0 18.92a2.22 2.22 0 0 1-3.79 1.572 2.238 2.238 0 0 1-.48-2.421 2.213 2.213 0 0 1 2.05-1.371c1.22 0 2.22.994 2.22 2.22Zm0 18.669c0 1.227-1 2.222-2.22 2.222-1.23 0-2.22-.995-2.22-2.222 0-1.227.99-2.221 2.22-2.221 1.22 0 2.22.994 2.22 2.221Zm0 18.92c0 1.227-1 2.222-2.22 2.222-1.23 0-2.22-.995-2.22-2.222 0-1.226.99-2.221 2.22-2.221 1.22 0 2.22.995 2.22 2.221Zm0 18.92a2.222 2.222 0 0 1-3.79 1.572 2.238 2.238 0 0 1-.48-2.421 2.212 2.212 0 0 1 2.05-1.372c1.22 0 2.22.994 2.22 2.221Zm-22.35-75.429c0 .898-.54 1.709-1.37 2.053-.83.344-1.78.154-2.41-.481a2.223 2.223 0 0 1-.49-2.421 2.218 2.218 0 0 1 4.27.849Zm0 18.92a2.22 2.22 0 0 1-1.37 2.053 2.2 2.2 0 0 1-2.41-.481 2.223 2.223 0 0 1-.49-2.421 2.233 2.233 0 0 1 2.05-1.371c1.23 0 2.22.994 2.22 2.22Zm0 18.669c0 1.227-.99 2.222-2.22 2.222-1.22 0-2.21-.995-2.21-2.222a2.216 2.216 0 1 1 4.43 0Zm0 18.92c0 1.227-.99 2.222-2.22 2.222-1.22 0-2.21-.995-2.21-2.222a2.216 2.216 0 1 1 4.43 0Zm0 18.92c0 .898-.54 1.709-1.37 2.053-.83.344-1.78.154-2.41-.481a2.223 2.223 0 0 1-.49-2.421 2.218 2.218 0 0 1 4.27.849Zm0 18.848a2.22 2.22 0 0 1-1.37 2.053 2.2 2.2 0 0 1-2.41-.481 2.223 2.223 0 0 1-.49-2.421 2.233 2.233 0 0 1 2.05-1.371c1.23 0 2.22.994 2.22 2.22Z" clip-rule="evenodd"/><path fill="#335CFF" fill-rule="evenodd" d="M1391.73 246.611v-89.008h-6.58v89.008h6.58Zm12.44 0v-89.008h-6.58v89.008h6.58Zm12.45 0v-89.008h-6.59v89.008h6.59Zm12.44 0v-89.007h-6.59v89.007h6.59Zm12.44 0v-89.007h-6.58v89.007h6.58Zm-212.02 270.742v-91.861a67.595 67.595 0 0 0-11.66 17.311v57.237a67.864 67.864 0 0 0 11.66 17.313Zm22.05 15.784v-41.971c-8.49-11.793-8.49-27.705 0-39.497v-41.971a67.38 67.38 0 0 0-11.67 6.662v110.116a67.44 67.44 0 0 0 11.67 6.661Zm22.04 5.58V504.76a33.375 33.375 0 0 1-11.66-4.161v36.169a66.93 66.93 0 0 0 11.66 1.949Zm0-100.633v-33.952a66.93 66.93 0 0 0-11.66 1.949v36.163a33.355 33.355 0 0 1 11.66-4.161v.001Zm22.05 98.727v-36.113a33.477 33.477 0 0 1-11.67 4.088v33.943c3.94-.295 7.84-.936 11.67-1.918Zm0-94.666v-36.114a67.14 67.14 0 0 0-11.67-1.917v33.943c4.11.625 8.06 2.011 11.67 4.088Zm22.04 84.45V416.253a67.297 67.297 0 0 0-11.67-6.619v41.806c8.72 11.89 8.72 28.069 0 39.959v41.812a67.292 67.292 0 0 0 11.67-6.618v.002Zm22.04-26.199v-57.948a67.576 67.576 0 0 0-11.66-17.137v92.222a67.612 67.612 0 0 0 11.66-17.137Z" clip-rule="evenodd"/><path fill="#14296E" fill-rule="evenodd" d="M1211.31 67.579v-33.65h-33.58V.275h-33.58v33.65h-33.59V.27h-33.58v33.654h33.58v33.649h33.58v-33.65h33.58v33.65h33.59v.005Z" clip-rule="evenodd"/><path fill="#1F3AB3" fill-rule="evenodd" d="M1222.63 269.5V146.23l-11.32-11.344V269.5h11.32Zm21.4 0V167.669l-11.32-11.344V269.5h11.32Zm21.4 0v-80.392l-11.32-11.344V269.5h11.32Zm21.39 0v-58.953l-11.32-11.344V269.5h11.32Zm21.4 0v-37.514l-11.32-11.344V269.5h11.32Zm21.4 0v-16.076l-11.33-11.344v27.42h11.33Zm10.07-5.981v5.981h5.97l-5.97-5.981Z" clip-rule="evenodd"/><path fill="#2240C4" fill-rule="evenodd" d="M1107.34 223.213c0-.458-.28-.87-.7-1.045a1.127 1.127 0 0 0-1.47 1.478c.17.423.58.699 1.04.699a1.134 1.134 0 0 0 1.13-1.132Zm0-9.626c0-.625-.51-1.132-1.13-1.132-.63 0-1.13.507-1.13 1.132a1.128 1.128 0 0 0 1.93.801c.21-.212.33-.501.33-.801Zm0-9.626c0-.458-.28-.871-.7-1.046a1.126 1.126 0 0 0-1.47 1.479c.17.423.58.698 1.04.698.62 0 1.13-.506 1.13-1.131Zm0-9.626c0-.458-.28-.871-.7-1.046a1.126 1.126 0 0 0-1.47 1.479c.17.423.58.698 1.04.698.62 0 1.13-.506 1.13-1.131Zm0-9.627c0-.458-.28-.871-.7-1.046a1.125 1.125 0 0 0-1.23.244c-.32.324-.42.811-.25 1.235a1.134 1.134 0 0 0 2.18-.433Zm0-9.626c0-.458-.28-.871-.7-1.047a1.124 1.124 0 0 0-1.23.245 1.15 1.15 0 0 0-.25 1.234 1.134 1.134 0 0 0 2.18-.432Zm0-9.626c0-.458-.28-.87-.7-1.045a1.127 1.127 0 0 0-1.47 1.478c.17.423.58.699 1.04.699a1.134 1.134 0 0 0 1.13-1.132Zm0-9.626c0-.458-.28-.871-.7-1.047a1.124 1.124 0 0 0-1.23.245 1.15 1.15 0 0 0-.25 1.234 1.134 1.134 0 0 0 2.18-.432Zm0-9.627c0-.458-.28-.871-.7-1.046a1.125 1.125 0 0 0-1.23.244c-.32.324-.42.811-.25 1.235a1.133 1.133 0 0 0 2.18-.433Zm0-9.626c0-.458-.28-.871-.7-1.047a1.126 1.126 0 0 0-1.23.245 1.15 1.15 0 0 0-.25 1.234 1.134 1.134 0 0 0 2.18-.432Zm-11.44 86.635c0-.458-.28-.871-.7-1.046a1.126 1.126 0 0 0-1.47 1.479c.17.423.58.698 1.04.698.62 0 1.13-.506 1.13-1.131Zm0-9.627c0-.624-.51-1.131-1.13-1.13-.63 0-1.13.507-1.13 1.132 0 .624.51 1.131 1.13 1.131.3 0 .59-.119.8-.332.21-.212.33-.5.33-.801Zm0-9.626c0-.625-.51-1.131-1.13-1.131-.62 0-1.13.506-1.13 1.131s.51 1.132 1.13 1.132c.62 0 1.13-.507 1.13-1.132Zm0-9.626c0-.625-.51-1.132-1.13-1.132-.62 0-1.13.507-1.13 1.132 0 .625.51 1.132 1.13 1.132.62 0 1.13-.507 1.13-1.132Zm0-9.626c0-.625-.51-1.131-1.13-1.131-.63 0-1.13.507-1.13 1.132 0 .625.51 1.131 1.13 1.131.3 0 .59-.119.8-.332.21-.212.33-.5.33-.8Zm0-9.627c0-.624-.51-1.131-1.13-1.13-.63 0-1.13.507-1.13 1.132 0 .624.51 1.131 1.13 1.131.62 0 1.13-.506 1.13-1.13v-.003Zm0-9.626c0-.625-.51-1.132-1.13-1.132-.62 0-1.13.507-1.13 1.132 0 .625.51 1.132 1.13 1.132.62 0 1.13-.507 1.13-1.132Zm0-9.626c0-.625-.51-1.131-1.13-1.131-.63.001-1.13.507-1.13 1.132a1.129 1.129 0 1 0 2.26-.001Zm0-9.626c0-.625-.51-1.132-1.13-1.132-.62 0-1.13.507-1.13 1.132 0 .625.51 1.131 1.13 1.131.62 0 1.13-.506 1.13-1.131Zm0-9.627c0-.624-.51-1.131-1.13-1.131-.62 0-1.13.507-1.13 1.131 0 .625.51 1.132 1.13 1.132.62 0 1.13-.507 1.13-1.132Zm-11.44 86.635c0-.625-.51-1.132-1.13-1.132-.62 0-1.13.507-1.13 1.132 0 .625.51 1.131 1.13 1.131.62 0 1.13-.506 1.13-1.131Zm0-9.627a1.13 1.13 0 1 0-2.26.006 1.13 1.13 0 0 0 2.26-.003v-.003Zm0-9.626c0-.457-.28-.87-.7-1.045a1.127 1.127 0 0 0-1.47 1.478c.17.423.58.699 1.04.699.62 0 1.13-.507 1.13-1.132Zm0-9.626c0-.458-.28-.87-.7-1.045a1.127 1.127 0 0 0-1.47 1.478c.17.423.58.699 1.04.699.62 0 1.13-.507 1.13-1.132Zm0-9.626c0-.625-.51-1.132-1.13-1.132-.62 0-1.13.507-1.13 1.132 0 .625.51 1.131 1.13 1.131.62 0 1.13-.506 1.13-1.131Zm0-9.627c0-.624-.51-1.131-1.13-1.13-.62 0-1.13.507-1.13 1.132a1.131 1.131 0 0 0 2.26.003v-.005Zm0-9.626c0-.624-.51-1.131-1.13-1.131-.62 0-1.13.507-1.13 1.131 0 .625.51 1.132 1.13 1.132.62 0 1.13-.507 1.13-1.132Zm0-9.626c0-.625-.51-1.131-1.13-1.131-.62.001-1.13.507-1.13 1.132a1.129 1.129 0 1 0 2.26-.001Zm0-9.626c0-.625-.51-1.132-1.13-1.132-.62 0-1.13.507-1.13 1.132 0 .625.51 1.132 1.13 1.132.62 0 1.13-.507 1.13-1.132Zm0-9.626c0-.625-.51-1.131-1.13-1.131-.62 0-1.13.507-1.13 1.132a1.133 1.133 0 0 0 1.93.8c.21-.213.33-.501.33-.801Zm-11.44 86.634c0-.625-.51-1.131-1.13-1.131-.62 0-1.13.506-1.13 1.131s.51 1.132 1.13 1.132c.62 0 1.13-.507 1.13-1.132Zm0-9.626c0-.625-.51-1.131-1.13-1.131-.62 0-1.13.507-1.13 1.132a1.133 1.133 0 0 0 1.93.8c.21-.213.33-.501.33-.801Zm0-9.627c0-.624-.51-1.131-1.13-1.131-.62 0-1.13.507-1.13 1.131 0 .625.51 1.132 1.13 1.132.62 0 1.13-.507 1.13-1.132Zm0-9.626c0-.457-.28-.87-.7-1.045a1.126 1.126 0 0 0-1.47 1.478c.17.423.58.699 1.04.699.62 0 1.13-.507 1.13-1.132Zm0-9.626c0-.625-.51-1.131-1.13-1.131-.62.001-1.13.507-1.13 1.132a1.129 1.129 0 1 0 2.26-.001Zm0-9.626c0-.625-.51-1.131-1.13-1.131-.62 0-1.13.507-1.13 1.132a1.133 1.133 0 0 0 1.93.8c.21-.213.33-.501.33-.801Zm0-9.626c0-.458-.28-.871-.7-1.046a1.126 1.126 0 0 0-1.47 1.479c.17.423.58.698 1.04.698.62 0 1.13-.506 1.13-1.131Zm0-9.627c0-.625-.51-1.131-1.13-1.13-.62 0-1.13.507-1.13 1.131a1.129 1.129 0 1 0 2.26-.001Zm0-9.626c0-.625-.51-1.132-1.13-1.132-.62 0-1.13.507-1.13 1.132 0 .625.51 1.132 1.13 1.132.62 0 1.13-.507 1.13-1.132Zm0-9.626c0-.625-.51-1.132-1.13-1.132-.62 0-1.13.507-1.13 1.132 0 .625.51 1.131 1.13 1.131.62 0 1.13-.506 1.13-1.131Zm-11.44 86.641c0-.625-.51-1.131-1.13-1.131-.63 0-1.13.506-1.13 1.131s.5 1.132 1.13 1.132c.62 0 1.13-.507 1.13-1.132Zm0-9.626a1.14 1.14 0 0 0-1.13-1.131c-.63.001-1.13.507-1.13 1.132 0 .625.5 1.132 1.13 1.132.3 0 .58-.12.79-.332.22-.213.34-.501.34-.801Zm0-9.626c0-.625-.51-1.132-1.13-1.132-.63 0-1.13.507-1.13 1.132 0 .625.5 1.132 1.13 1.132.62 0 1.13-.507 1.13-1.132Zm0-9.626c0-.625-.51-1.132-1.13-1.132-.63 0-1.13.507-1.13 1.132 0 .625.5 1.131 1.13 1.131.62 0 1.13-.506 1.13-1.131Zm0-9.627c0-.625-.51-1.131-1.13-1.131-.63 0-1.13.506-1.13 1.131s.5 1.132 1.13 1.132c.62 0 1.13-.507 1.13-1.132Zm0-9.626a1.14 1.14 0 0 0-1.13-1.131c-.63.001-1.13.507-1.13 1.132 0 .625.5 1.132 1.13 1.132.3 0 .58-.12.79-.332.22-.213.34-.501.34-.801Zm0-9.626c0-.625-.51-1.132-1.13-1.132-.63 0-1.13.507-1.13 1.132 0 .625.5 1.132 1.13 1.132.62 0 1.13-.507 1.13-1.132Zm0-9.626a1.14 1.14 0 0 0-1.13-1.131c-.63 0-1.13.507-1.13 1.132 0 .625.5 1.131 1.13 1.131.62 0 1.12-.505 1.13-1.129v-.003Zm0-9.626c0-.625-.51-1.132-1.13-1.132-.63 0-1.13.507-1.13 1.132 0 .625.5 1.131 1.13 1.131.62 0 1.13-.506 1.13-1.131Zm0-9.627c0-.625-.51-1.131-1.13-1.131-.63 0-1.13.506-1.13 1.131s.5 1.132 1.13 1.132c.62 0 1.13-.507 1.13-1.132Zm-11.44 86.635c0-.458-.28-.871-.7-1.046a1.126 1.126 0 0 0-1.23.246c-.33.323-.42.81-.25 1.233a1.133 1.133 0 0 0 2.18-.433Zm0-9.627c0-.624-.51-1.131-1.13-1.13-.63 0-1.13.507-1.13 1.132 0 .624.5 1.131 1.13 1.131.3 0 .58-.119.8-.332.21-.212.33-.5.33-.801Zm0-9.626c0-.458-.28-.87-.7-1.045a1.124 1.124 0 0 0-1.23.245c-.33.324-.42.81-.25 1.233.18.423.59.699 1.05.699.3.001.58-.118.8-.329.21-.212.33-.5.33-.8v-.003Zm0-9.626c0-.458-.28-.871-.7-1.046a1.126 1.126 0 0 0-1.23.246c-.33.323-.42.81-.25 1.233a1.133 1.133 0 0 0 2.18-.433Zm0-9.626c0-.458-.28-.871-.7-1.046a1.126 1.126 0 0 0-1.23.246c-.33.323-.42.81-.25 1.233a1.133 1.133 0 0 0 2.18-.433Zm0-9.627c0-.624-.51-1.131-1.13-1.13-.63 0-1.13.507-1.13 1.132 0 .624.5 1.131 1.13 1.131.3 0 .58-.119.8-.332.21-.212.33-.5.33-.801Zm0-9.626c0-.458-.28-.87-.7-1.045a1.124 1.124 0 0 0-1.23.245c-.33.323-.42.81-.25 1.233a1.134 1.134 0 0 0 2.18-.433Zm0-9.626c0-.625-.51-1.131-1.13-1.131-.63.001-1.13.507-1.13 1.132 0 .625.5 1.131 1.13 1.131.3 0 .58-.119.8-.331.21-.213.33-.501.33-.801Zm0-9.626c0-.458-.28-.87-.7-1.046a1.126 1.126 0 0 0-1.23.246c-.33.323-.42.81-.25 1.233a1.133 1.133 0 0 0 2.18-.433Zm0-9.627c0-.624-.51-1.131-1.13-1.13-.63 0-1.13.507-1.13 1.132 0 .624.5 1.131 1.13 1.131.3 0 .58-.119.8-.332.21-.212.33-.5.33-.801Zm-11.44 86.638c0-.625-.51-1.131-1.13-1.131-.62 0-1.13.506-1.13 1.131s.51 1.132 1.13 1.132c.62 0 1.13-.507 1.13-1.132Zm0-9.626c0-.625-.51-1.132-1.13-1.132-.62 0-1.13.507-1.13 1.132 0 .625.51 1.132 1.13 1.132.62 0 1.13-.507 1.13-1.132Zm0-9.626c0-.625-.51-1.132-1.13-1.132-.62 0-1.13.507-1.13 1.132 0 .625.51 1.132 1.13 1.132.62 0 1.13-.507 1.13-1.132Zm0-9.626c0-.625-.51-1.132-1.13-1.132-.62 0-1.13.507-1.13 1.132 0 .625.51 1.131 1.13 1.131.62 0 1.13-.506 1.13-1.131Zm0-9.627c0-.625-.51-1.131-1.13-1.131-.62 0-1.13.506-1.13 1.131s.51 1.132 1.13 1.132c.62 0 1.13-.507 1.13-1.132Zm0-9.626c0-.625-.51-1.132-1.13-1.132-.62 0-1.13.507-1.13 1.132 0 .625.51 1.132 1.13 1.132.62 0 1.13-.507 1.13-1.132Zm0-9.626c0-.625-.51-1.132-1.13-1.132-.62 0-1.13.507-1.13 1.132 0 .625.51 1.132 1.13 1.132.62 0 1.13-.507 1.13-1.132Zm0-9.626c0-.625-.51-1.132-1.13-1.132-.62 0-1.13.507-1.13 1.132 0 .625.51 1.132 1.13 1.132.62 0 1.13-.507 1.13-1.132Zm0-9.626c0-.625-.51-1.132-1.13-1.132-.62 0-1.13.507-1.13 1.132 0 .625.51 1.131 1.13 1.131.62 0 1.13-.506 1.13-1.131Zm0-9.627c0-.625-.51-1.131-1.13-1.131-.62 0-1.13.506-1.13 1.131s.51 1.132 1.13 1.132c.62 0 1.13-.507 1.13-1.132Zm-11.44 86.635c0-.458-.28-.871-.7-1.046a1.126 1.126 0 0 0-1.47 1.479c.17.423.58.698 1.04.698.62 0 1.13-.507 1.13-1.131Zm0-9.627c0-.624-.51-1.131-1.13-1.13-.62 0-1.13.507-1.13 1.132 0 .624.51 1.131 1.13 1.131.3 0 .59-.119.8-.332.21-.212.33-.5.33-.801Zm0-9.626c0-.625-.51-1.131-1.13-1.131-.62 0-1.13.506-1.13 1.131s.51 1.132 1.13 1.132a1.134 1.134 0 0 0 1.13-1.132Zm0-9.626c0-.625-.51-1.132-1.13-1.132-.62 0-1.13.507-1.13 1.132 0 .625.51 1.131 1.13 1.131.62 0 1.13-.506 1.13-1.131Zm0-9.626c0-.625-.51-1.132-1.13-1.132-.62 0-1.13.507-1.13 1.132 0 .625.51 1.131 1.13 1.131.62 0 1.13-.507 1.13-1.131Zm0-9.627c0-.625-.51-1.131-1.13-1.131-.62 0-1.13.506-1.13 1.131s.51 1.132 1.13 1.132c.62 0 1.13-.507 1.13-1.132Zm0-9.626c0-.625-.51-1.132-1.13-1.132-.62 0-1.13.507-1.13 1.132 0 .625.51 1.132 1.13 1.132a1.134 1.134 0 0 0 1.13-1.132Zm0-9.626c0-.625-.51-1.131-1.13-1.131-.62 0-1.13.506-1.13 1.131s.51 1.132 1.13 1.132c.62 0 1.13-.507 1.13-1.132Zm0-9.626c0-.625-.51-1.132-1.13-1.132-.62 0-1.13.507-1.13 1.132 0 .625.51 1.131 1.13 1.131.62 0 1.13-.506 1.13-1.131Zm0-9.627c0-.624-.51-1.131-1.13-1.131-.62 0-1.13.507-1.13 1.131 0 .625.51 1.132 1.13 1.132.62 0 1.13-.507 1.13-1.132Z" clip-rule="evenodd"/><path fill="#14296E" fill-rule="evenodd" d="M942.677 404.115V134.886H719.995v269.229h222.682Z" clip-rule="evenodd"/><path fill="#2240C4" fill-rule="evenodd" d="M942.677 134.886V.272H719.995v134.614h222.682Z" clip-rule="evenodd"/><path fill="#1F3AB3" fill-rule="evenodd" d="M719.995 269.501h88.337l-88.337-88.514v88.514Z" clip-rule="evenodd"/><path fill="#2240C4" fill-rule="evenodd" d="M719.995 269.501h88.337l-88.337 88.514v-88.514Z" clip-rule="evenodd"/><path fill="#14296E" fill-rule="evenodd" d="M797.011 538.729v-123.27l11.322-11.344v134.614h-11.322Zm-21.396 0v-101.83l11.322-11.345v113.175h-11.322Zm-21.396 0v-80.391l11.322-11.345v91.736h-11.322Zm-21.396 0v-58.952l11.321-11.345v70.297h-11.321Zm-12.828-46.099 2.753-2.758v48.857h-2.753V492.63Zm211.361-357.744V11.616L942.677.27v134.615h-11.321Zm-21.396 0V33.054l11.322-11.344v113.176H909.96Zm-21.397 0V54.493l11.322-11.344v91.737h-11.322Zm-21.396 0V75.933l11.323-11.345v70.298h-11.323Zm-21.395 0V97.372l11.321-11.345v48.859h-11.321Zm-21.397 0v-16.075l11.322-11.344v27.419h-11.322Zm-10.074-5.981v5.981h-5.969l5.969-5.981Z" clip-rule="evenodd"/><path fill="#2240C4" fill-rule="evenodd" d="M875.539 458.817H862.78v-12.786h-12.761v12.786h12.761v25.211h-12.761v12.786h12.761v-12.786h25.449v12.785h12.757v-12.785h-12.761v-25.211h12.761v-12.785h-12.761v12.785h-12.69.004Z" clip-rule="evenodd"/><path fill="#14296E" fill-rule="evenodd" d="M1438.56 484.243v-12.821h-12.79v-12.82h-12.8v12.82h12.8v12.821h12.79Z" clip-rule="evenodd"/></svg>